<svg version="1.1" xmlns="http://www.w3.org/2000/svg" viewBox="0 0 2140 872.5" width="2140" height="872.5">
  <!-- svg-source:excalidraw -->
  
  <defs>
    <style class="style-fonts">
      @font-face {
        font-family: "Virgil";
        src: url("https://excalidraw.com/Virgil.woff2");
      }
      @font-face {
        font-family: "Cascadia";
        src: url("https://excalidraw.com/Cascadia.woff2");
      }
    </style>
    
  </defs>
  <rect x="0" y="0" width="2140" height="872.5" fill="#ffffff"></rect><g transform="translate(958.75 807.5) rotate(0 -31.875 14.375)" stroke="none"><path fill="#1e1e1e" d="M 3.12,1.04 Q 3.12,1.04 1.60,5.32 0.08,9.61 -2.39,16.47 -4.88,23.34 -9.65,31.52 -14.43,39.69 -17.21,44.56 -20.00,49.42 -20.87,50.05 -21.73,50.67 -21.96,50.98 -22.19,51.30 -22.49,51.55 -22.79,51.80 -23.14,51.97 -23.49,52.15 -23.87,52.23 -24.25,52.31 -24.64,52.30 -25.03,52.29 -25.41,52.19 -25.78,52.09 -26.12,51.90 -26.46,51.71 -26.75,51.44 -27.03,51.18 -27.25,50.85 -27.46,50.53 -27.59,50.16 -27.72,49.79 -27.76,49.40 -27.79,49.01 -27.74,48.63 -27.68,48.24 -27.53,47.88 -27.39,47.52 -27.48,43.55 -27.57,39.58 -24.67,29.94 -21.77,20.30 -15.76,10.00 -9.75,-0.30 -2.75,-8.02 4.24,-15.75 11.26,-19.58 18.28,-23.41 24.72,-22.09 31.16,-20.78 33.16,-14.03 35.16,-7.29 26.85,-1.53 18.55,4.21 12.66,7.80 6.76,11.38 9.48,13.02 12.19,14.66 15.62,16.10 19.06,17.55 21.27,21.06 23.49,24.57 21.56,28.80 19.62,33.04 12.61,39.14 5.59,45.24 -2.32,48.94 -10.24,52.63 -30.89,53.12 -51.53,53.61 -65.89,53.02 -80.25,52.43 -86.32,52.16 -92.38,51.90 -92.83,51.81 -93.27,51.72 -93.67,51.49 -94.06,51.26 -94.36,50.92 -94.66,50.58 -94.84,50.15 -95.01,49.73 -95.05,49.28 -95.08,48.83 -94.96,48.39 -94.85,47.94 -94.60,47.56 -94.35,47.18 -93.99,46.90 -93.63,46.62 -93.21,46.47 -92.78,46.31 -92.32,46.31 -91.87,46.30 -91.43,46.44 -91.00,46.58 -90.63,46.85 -90.26,47.12 -90.00,47.49 -89.74,47.86 -89.61,48.30 -89.48,48.74 -89.50,49.19 -89.52,49.65 -89.68,50.07 -89.84,50.50 -90.13,50.85 -90.42,51.20 -90.81,51.44 -91.19,51.68 -91.64,51.79 -92.08,51.89 -92.53,51.85 -92.99,51.81 -93.40,51.62 -93.82,51.44 -94.15,51.13 -94.49,50.82 -94.71,50.43 -94.93,50.03 -95.01,49.58 -95.09,49.13 -95.02,48.68 -94.96,48.23 -94.75,47.82 -94.54,47.42 -94.22,47.10 -93.89,46.78 -93.48,46.58 -93.07,46.38 -92.62,46.33 -92.17,46.27 -92.17,46.27 -92.17,46.27 -86.10,46.47 -80.03,46.66 -65.84,47.15 -51.65,47.64 -32.17,47.29 -12.69,46.94 -5.69,43.59 1.30,40.24 7.41,34.84 13.52,29.44 14.79,26.31 16.06,23.18 12.80,21.75 9.55,20.31 5.81,18.39 2.07,16.47 2.76,12.02 3.45,7.57 9.55,3.69 15.64,-0.19 23.71,-5.23 31.77,-10.28 30.01,-13.74 28.24,-17.20 24.13,-17.90 20.03,-18.60 14.08,-15.34 8.13,-12.08 1.51,-4.82 -5.10,2.44 -10.84,12.19 -16.57,21.93 -19.31,30.73 -22.05,39.52 -21.89,45.10 -21.73,50.67 -21.96,50.98 -22.19,51.30 -22.49,51.55 -22.79,51.80 -23.14,51.97 -23.49,52.15 -23.87,52.23 -24.25,52.31 -24.64,52.30 -25.03,52.29 -25.41,52.19 -25.78,52.09 -26.12,51.90 -26.46,51.71 -26.75,51.44 -27.03,51.18 -27.25,50.85 -27.46,50.53 -27.59,50.16 -27.72,49.79 -27.76,49.40 -27.79,49.01 -27.74,48.63 -27.68,48.24 -27.53,47.88 -27.39,47.52 -25.97,46.93 -24.56,46.33 -21.99,41.56 -19.41,36.80 -14.95,29.07 -10.50,21.35 -8.16,14.49 -5.83,7.63 -4.47,3.29 -3.12,-1.04 -2.95,-1.40 -2.78,-1.76 -2.53,-2.06 -2.28,-2.37 -1.96,-2.61 -1.65,-2.85 -1.28,-3.01 -0.91,-3.16 -0.52,-3.23 -0.13,-3.29 0.26,-3.26 0.65,-3.23 1.03,-3.10 1.41,-2.98 1.74,-2.76 2.08,-2.55 2.36,-2.26 2.63,-1.98 2.83,-1.63 3.03,-1.29 3.14,-0.91 3.25,-0.53 3.27,-0.13 3.28,0.26 3.20,0.65 3.12,1.04 3.12,1.04 L 3.12,1.04 Z"></path></g><g transform="translate(118.75 712.5) rotate(0 230 43.125)" stroke="none"><path fill="#1e1e1e" d="M 3.48,1.07 Q 3.48,1.07 1.91,5.70 0.35,10.33 -1.81,16.29 -3.97,22.25 -5.59,28.57 -7.21,34.89 -7.91,40.33 -8.60,45.77 -8.92,51.30 -9.24,56.82 -9.23,59.74 -9.23,62.65 -5.45,64.76 -1.66,66.87 4.04,69.02 9.76,71.17 23.86,73.53 37.96,75.90 59.04,77.67 80.13,79.44 95.98,80.94 111.84,82.45 121.56,84.20 131.28,85.94 137.51,87.05 143.74,88.16 149.50,88.62 155.26,89.09 161.65,89.29 168.03,89.50 177.68,90.32 187.32,91.13 213.79,95.81 240.26,100.49 265.46,104.62 290.65,108.76 318.23,112.67 345.81,116.59 371.49,118.96 397.18,121.34 425.07,125.24 452.96,129.14 473.08,132.23 493.19,135.32 506.72,136.99 520.25,138.66 528.43,139.00 536.60,139.35 540.62,138.79 544.63,138.23 547.77,137.46 550.91,136.69 553.20,135.34 555.48,133.98 556.50,130.07 557.52,126.16 558.08,123.06 558.64,119.97 558.89,116.76 559.14,113.55 560.21,109.00 561.28,104.46 562.13,98.80 562.98,93.14 563.38,87.22 563.79,81.29 564.37,75.43 564.95,69.57 565.06,66.06 565.18,62.55 565.11,59.64 565.04,56.74 564.35,54.69 563.66,52.64 559.16,51.70 554.66,50.75 538.81,47.52 522.96,44.28 483.88,37.46 444.80,30.64 392.26,22.31 339.73,13.99 290.83,7.19 241.93,0.39 195.59,-7.18 149.25,-14.77 104.40,-22.68 59.54,-30.59 23.95,-37.20 -11.64,-43.81 -34.96,-46.97 -58.28,-50.13 -72.45,-51.12 -86.61,-52.10 -93.02,-52.53 -99.43,-52.96 -103.13,-52.49 -106.83,-52.03 -107.32,-52.08 -107.82,-52.13 -108.28,-52.33 -108.73,-52.54 -109.10,-52.87 -109.46,-53.21 -109.70,-53.65 -109.94,-54.09 -110.03,-54.58 -110.12,-55.07 -110.04,-55.56 -109.97,-56.06 -109.74,-56.50 -109.51,-56.95 -109.15,-57.29 -108.79,-57.64 -108.34,-57.86 -107.89,-58.07 -107.40,-58.13 -106.90,-58.19 -106.41,-58.09 -105.93,-57.99 -105.49,-57.74 -105.06,-57.48 -104.74,-57.11 -104.41,-56.73 -104.22,-56.27 -104.03,-55.81 -103.99,-55.31 -103.96,-54.81 -104.09,-54.33 -104.22,-53.85 -104.49,-53.43 -104.77,-53.02 -105.16,-52.71 -105.55,-52.40 -106.02,-52.24 -106.50,-52.07 -106.99,-52.07 -107.49,-52.06 -107.97,-52.21 -108.44,-52.37 -108.84,-52.66 -109.24,-52.96 -109.53,-53.37 -109.81,-53.78 -109.95,-54.26 -110.09,-54.74 -110.07,-55.24 -110.05,-55.74 -109.87,-56.20 -109.69,-56.67 -109.38,-57.05 -109.06,-57.44 -108.63,-57.70 -108.21,-57.96 -107.72,-58.07 -107.24,-58.19 -107.24,-58.19 -107.24,-58.19 -103.16,-58.24 -99.09,-58.30 -92.66,-57.89 -86.24,-57.48 -71.90,-56.50 -57.55,-55.53 -34.09,-52.38 -10.64,-49.23 24.93,-42.67 60.52,-36.12 105.34,-28.28 150.17,-20.44 196.46,-12.96 242.74,-5.48 291.71,1.19 340.69,7.87 393.30,16.03 445.90,24.19 485.10,30.79 524.30,37.38 540.42,40.35 556.54,43.32 563.00,45.13 569.47,46.95 570.99,49.75 572.51,52.56 572.35,54.76 572.19,56.96 571.94,59.94 571.70,62.93 571.40,66.51 571.10,70.09 570.70,75.85 570.31,81.61 570.11,87.80 569.92,93.99 569.35,99.94 568.77,105.88 568.19,110.02 567.61,114.17 567.37,117.87 567.12,121.58 566.51,124.62 565.90,127.65 565.04,131.32 564.18,135.00 562.50,137.26 560.81,139.52 558.63,140.94 556.45,142.37 554.23,142.47 552.00,142.58 548.67,143.01 545.33,143.44 540.86,144.02 536.40,144.60 528.00,144.24 519.61,143.89 506.00,142.21 492.39,140.53 472.31,137.45 452.23,134.36 424.46,130.48 396.69,126.61 370.88,124.22 345.06,121.83 317.43,117.92 289.79,114.01 264.56,109.88 239.33,105.75 213.10,101.12 186.87,96.49 177.37,95.70 167.87,94.91 161.35,94.73 154.83,94.55 148.81,94.10 142.80,93.64 136.55,92.59 130.30,91.54 120.80,89.91 111.31,88.27 95.47,86.88 79.64,85.49 58.29,83.84 36.94,82.19 22.23,79.88 7.52,77.58 1.25,75.50 -5.00,73.43 -8.68,71.29 -12.36,69.15 -13.88,66.15 -15.40,63.15 -15.15,59.84 -14.90,56.53 -14.65,50.81 -14.39,45.08 -13.74,39.27 -13.08,33.45 -11.52,26.82 -9.97,20.18 -8.03,14.26 -6.10,8.35 -4.79,3.63 -3.48,-1.07 -3.30,-1.47 -3.13,-1.87 -2.86,-2.22 -2.59,-2.57 -2.24,-2.84 -1.89,-3.11 -1.49,-3.29 -1.09,-3.48 -0.66,-3.56 -0.23,-3.64 0.20,-3.61 0.64,-3.59 1.06,-3.46 1.48,-3.33 1.86,-3.10 2.24,-2.88 2.55,-2.57 2.86,-2.26 3.09,-1.88 3.32,-1.50 3.45,-1.09 3.58,-0.67 3.61,-0.23 3.64,0.20 3.56,0.64 3.48,1.07 3.48,1.07 L 3.48,1.07 Z"></path></g><g transform="translate(996.25 543.75) rotate(0 192.5 -91.875)" stroke="none"><path fill="#1e1e1e" d="M -0.70,-3.04 Q -0.70,-3.04 3.98,-4.05 8.67,-5.06 19.64,-7.63 30.61,-10.19 47.47,-14.50 64.34,-18.80 86.20,-25.28 108.07,-31.76 132.02,-40.95 155.97,-50.13 182.64,-62.63 209.30,-75.13 233.95,-87.28 258.60,-99.42 278.74,-110.31 298.89,-121.20 316.39,-131.91 333.90,-142.62 343.45,-149.30 353.01,-155.97 358.87,-160.25 364.74,-164.53 367.90,-167.07 371.05,-169.60 364.02,-170.09 356.99,-170.58 345.25,-171.32 333.51,-172.06 323.15,-172.41 312.80,-172.76 308.02,-172.94 303.24,-173.11 302.65,-173.04 302.05,-172.97 301.67,-173.03 301.28,-173.09 300.93,-173.23 300.57,-173.38 300.26,-173.60 299.95,-173.83 299.70,-174.12 299.45,-174.42 299.28,-174.76 299.10,-175.11 299.02,-175.49 298.94,-175.86 298.95,-176.25 298.96,-176.63 299.06,-177.01 299.16,-177.38 299.35,-177.72 299.53,-178.05 299.80,-178.34 300.06,-178.62 300.38,-178.83 300.70,-179.04 301.07,-179.17 301.43,-179.30 301.82,-179.34 302.20,-179.37 311.61,-179.23 321.02,-179.09 329.59,-179.78 338.17,-180.47 347.16,-181.82 356.15,-183.17 363.27,-184.10 370.40,-185.04 374.66,-185.44 378.93,-185.85 381.89,-184.27 384.86,-182.69 385.35,-178.40 385.83,-174.11 385.42,-169.91 385.01,-165.71 384.78,-155.84 384.55,-145.96 384.43,-137.78 384.30,-129.59 384.32,-125.75 384.34,-121.91 384.55,-120.27 384.75,-118.64 384.66,-118.08 384.56,-117.52 384.30,-117.02 384.03,-116.53 383.61,-116.14 383.20,-115.75 382.69,-115.52 382.17,-115.29 381.61,-115.23 381.05,-115.17 380.50,-115.30 379.95,-115.42 379.46,-115.72 378.98,-116.01 378.62,-116.45 378.26,-116.88 378.05,-117.41 377.85,-117.93 377.82,-118.50 377.79,-119.06 377.95,-119.61 378.10,-120.15 378.42,-120.61 378.74,-121.08 379.20,-121.42 379.65,-121.76 380.18,-121.93 380.72,-122.11 381.29,-122.11 381.85,-122.10 382.39,-121.92 382.92,-121.73 383.37,-121.39 383.82,-121.04 384.13,-120.57 384.44,-120.10 384.59,-119.56 384.74,-119.01 384.70,-118.45 384.67,-117.88 384.45,-117.36 384.24,-116.84 383.87,-116.41 383.50,-115.98 383.02,-115.69 382.53,-115.41 381.98,-115.29 381.43,-115.17 380.86,-115.24 380.30,-115.30 379.79,-115.54 379.28,-115.78 378.87,-116.17 378.47,-116.57 378.20,-117.07 377.94,-117.57 377.86,-118.13 377.77,-118.69 377.77,-118.68 377.77,-118.68 378.00,-120.32 378.23,-121.95 378.30,-125.79 378.38,-129.64 378.38,-137.85 378.38,-146.06 378.45,-156.16 378.52,-166.27 378.81,-170.17 379.10,-174.08 379.03,-177.26 378.96,-180.45 375.04,-180.05 371.12,-179.65 364.05,-178.68 356.98,-177.72 347.81,-176.30 338.64,-174.87 329.83,-174.11 321.03,-173.34 311.54,-173.16 302.05,-172.97 301.67,-173.03 301.29,-173.09 300.93,-173.23 300.57,-173.38 300.26,-173.60 299.95,-173.83 299.70,-174.12 299.45,-174.42 299.28,-174.76 299.11,-175.11 299.02,-175.49 298.94,-175.86 298.95,-176.25 298.96,-176.63 299.06,-177.01 299.16,-177.38 299.35,-177.72 299.53,-178.05 299.80,-178.34 300.06,-178.62 300.38,-178.83 300.70,-179.04 301.07,-179.17 301.43,-179.30 301.82,-179.34 302.20,-179.37 302.79,-179.21 303.38,-179.04 308.17,-178.99 312.95,-178.95 323.41,-178.77 333.86,-178.59 345.71,-178.08 357.57,-177.57 365.59,-176.97 373.62,-176.38 375.89,-172.91 378.16,-169.44 376.29,-167.40 374.42,-165.36 371.13,-162.81 367.85,-160.26 361.95,-155.95 356.04,-151.63 346.35,-144.86 336.67,-138.09 319.05,-127.30 301.42,-116.51 281.20,-105.56 260.97,-94.61 236.28,-82.43 211.60,-70.25 184.76,-57.64 157.93,-45.04 133.79,-35.75 109.65,-26.46 87.70,-19.90 65.74,-13.34 48.85,-8.96 31.95,-4.57 20.98,-1.90 10.01,0.75 5.35,1.90 0.70,3.04 0.32,3.08 -0.04,3.12 -0.41,3.07 -0.79,3.02 -1.14,2.88 -1.49,2.74 -1.79,2.52 -2.10,2.30 -2.35,2.02 -2.59,1.73 -2.76,1.40 -2.93,1.06 -3.02,0.69 -3.10,0.33 -3.10,-0.04 -3.09,-0.42 -3.00,-0.78 -2.90,-1.15 -2.72,-1.48 -2.54,-1.81 -2.29,-2.09 -2.03,-2.36 -1.72,-2.57 -1.41,-2.78 -1.05,-2.91 -0.70,-3.04 -0.70,-3.04 L -0.70,-3.04 Z"></path></g><g transform="translate(1427.5 251.25) rotate(0 6.875 48.75)" stroke="none"><path fill="#1e1e1e" d="M 3.72,-0.17 Q 3.72,-0.17 3.94,7.37 4.15,14.92 6.68,28.69 9.21,42.46 11.34,53.81 13.47,65.15 14.37,72.96 15.27,80.77 15.98,86.68 16.69,92.60 16.70,93.11 16.71,93.61 16.56,94.09 16.41,94.57 16.11,94.97 15.82,95.38 15.41,95.67 15.00,95.96 14.52,96.10 14.03,96.25 13.53,96.23 13.03,96.21 12.56,96.03 12.09,95.86 11.70,95.54 11.31,95.22 11.04,94.80 10.78,94.37 10.66,93.88 10.54,93.39 10.59,92.89 10.63,92.39 10.83,91.93 11.03,91.47 11.37,91.10 11.71,90.73 12.15,90.49 12.59,90.24 13.08,90.15 13.58,90.06 14.08,90.13 14.57,90.20 15.02,90.43 15.47,90.66 15.82,91.02 16.17,91.37 16.39,91.82 16.61,92.28 16.68,92.78 16.74,93.27 16.64,93.77 16.55,94.26 16.29,94.69 16.04,95.13 15.67,95.46 15.29,95.80 14.83,95.99 14.36,96.19 13.86,96.22 13.36,96.26 12.88,96.13 12.39,96.01 11.97,95.74 11.55,95.46 11.23,95.07 10.92,94.67 10.75,94.20 10.58,93.73 10.58,93.73 10.58,93.73 10.01,87.60 9.44,81.48 8.46,73.90 7.48,66.32 5.18,55.00 2.89,43.67 0.09,29.46 -2.71,15.26 -3.22,7.71 -3.72,0.17 -3.69,-0.27 -3.66,-0.72 -3.52,-1.14 -3.38,-1.57 -3.14,-1.95 -2.90,-2.34 -2.58,-2.65 -2.26,-2.96 -1.87,-3.19 -1.48,-3.42 -1.05,-3.55 -0.62,-3.68 -0.17,-3.70 0.27,-3.72 0.71,-3.63 1.15,-3.55 1.56,-3.36 1.97,-3.17 2.32,-2.88 2.67,-2.60 2.94,-2.24 3.22,-1.89 3.39,-1.47 3.57,-1.06 3.65,-0.62 3.72,-0.17 3.72,-0.17 L 3.72,-0.17 Z"></path></g><g transform="translate(1377.5 250) rotate(0 56.875 -8.75)" stroke="none"><path fill="#1e1e1e" d="M 0.41,-3.71 Q 0.41,-3.71 6.86,-2.84 13.31,-1.97 21.60,-1.93 29.90,-1.88 38.62,-3.59 47.33,-5.30 56.51,-7.44 65.68,-9.58 76.42,-12.27 87.16,-14.96 94.58,-17.16 102.00,-19.36 105.44,-19.40 108.87,-19.44 109.37,-19.33 109.86,-19.22 110.29,-18.96 110.72,-18.69 111.05,-18.30 111.37,-17.92 111.56,-17.45 111.74,-16.98 111.76,-16.47 111.79,-15.97 111.65,-15.48 111.51,-15.00 111.23,-14.58 110.94,-14.16 110.54,-13.86 110.13,-13.56 109.65,-13.40 109.17,-13.24 108.67,-13.24 108.16,-13.25 107.68,-13.41 107.21,-13.57 106.81,-13.88 106.40,-14.19 106.12,-14.61 105.84,-15.03 105.71,-15.52 105.58,-16.01 105.61,-16.51 105.64,-17.01 105.83,-17.48 106.02,-17.95 106.35,-18.33 106.68,-18.72 107.11,-18.97 107.55,-19.23 108.04,-19.34 108.54,-19.44 109.04,-19.39 109.54,-19.33 110.00,-19.11 110.45,-18.90 110.82,-18.55 111.18,-18.20 111.42,-17.75 111.65,-17.30 111.73,-16.80 111.81,-16.30 111.72,-15.81 111.64,-15.31 111.40,-14.86 111.16,-14.42 110.79,-14.07 110.42,-13.73 109.96,-13.52 109.50,-13.31 109.00,-13.26 108.50,-13.21 108.50,-13.21 108.50,-13.21 105.99,-13.60 103.49,-14.00 96.03,-11.72 88.57,-9.43 77.81,-6.65 67.06,-3.87 57.80,-1.59 48.54,0.68 39.25,2.61 29.96,4.54 21.26,4.69 12.56,4.85 6.07,4.28 -0.41,3.71 -0.85,3.60 -1.28,3.50 -1.68,3.29 -2.09,3.09 -2.43,2.79 -2.77,2.50 -3.02,2.13 -3.28,1.76 -3.45,1.34 -3.61,0.93 -3.67,0.48 -3.73,0.03 -3.68,-0.40 -3.63,-0.85 -3.47,-1.27 -3.32,-1.70 -3.07,-2.07 -2.82,-2.44 -2.48,-2.74 -2.15,-3.05 -1.75,-3.26 -1.35,-3.47 -0.92,-3.59 -0.48,-3.70 -0.03,-3.70 0.41,-3.71 0.41,-3.71 L 0.41,-3.71 Z"></path></g><g transform="translate(1487.5 275) rotate(0 35.625 28.75)" stroke="none"><path fill="#1e1e1e" d="M 3.53,0.75 Q 3.53,0.75 2.32,5.75 1.11,10.75 0.94,17.88 0.76,25.02 5.07,34.33 9.37,43.63 17.87,48.51 26.37,53.39 38.48,44.64 50.59,35.89 56.75,24.30 62.91,12.72 65.67,6.96 68.43,1.20 70.26,-0.18 72.09,-1.57 72.27,-1.86 72.46,-2.15 72.71,-2.39 72.96,-2.63 73.26,-2.80 73.56,-2.98 73.89,-3.07 74.22,-3.17 74.57,-3.18 74.91,-3.19 75.25,-3.12 75.59,-3.06 75.90,-2.91 76.22,-2.76 76.49,-2.54 76.75,-2.32 76.96,-2.04 77.17,-1.77 77.30,-1.45 77.44,-1.13 77.49,-0.79 77.55,-0.45 77.52,-0.10 77.49,0.23 77.38,0.56 77.27,0.89 77.28,-0.31 77.30,-1.52 77.42,-1.07 77.54,-0.62 77.51,-0.16 77.48,0.30 77.31,0.73 77.13,1.16 76.83,1.51 76.52,1.86 76.12,2.10 75.72,2.33 75.27,2.43 74.82,2.53 74.35,2.47 73.89,2.42 73.47,2.22 73.05,2.02 72.72,1.70 72.38,1.38 72.17,0.97 71.95,0.56 71.88,0.10 71.81,-0.35 71.89,-0.81 71.97,-1.27 72.19,-1.68 72.41,-2.09 72.75,-2.40 73.09,-2.72 73.51,-2.91 73.93,-3.10 74.39,-3.15 74.86,-3.20 75.31,-3.10 75.76,-2.99 76.16,-2.75 76.56,-2.51 76.85,-2.15 77.15,-1.79 77.32,-1.36 77.49,-0.93 77.51,-0.46 77.53,-0.00 77.41,0.44 77.28,0.88 77.01,1.27 76.75,1.65 76.38,1.93 76.01,2.21 75.57,2.35 75.12,2.50 74.66,2.49 74.19,2.49 73.76,2.34 73.32,2.19 72.95,1.90 72.58,1.62 72.33,0.02 72.09,-1.57 72.27,-1.86 72.46,-2.15 72.71,-2.39 72.96,-2.63 73.26,-2.80 73.56,-2.98 73.89,-3.07 74.22,-3.17 74.57,-3.18 74.91,-3.19 75.25,-3.13 75.59,-3.06 75.90,-2.91 76.22,-2.76 76.49,-2.54 76.75,-2.32 76.96,-2.04 77.17,-1.77 77.30,-1.45 77.44,-1.13 77.49,-0.79 77.55,-0.45 77.52,-0.10 77.49,0.23 77.38,0.56 77.27,0.89 75.32,2.22 73.36,3.54 70.57,9.45 67.78,15.36 60.89,27.84 54.00,40.33 40.46,49.32 26.93,58.31 15.68,52.51 4.43,46.71 -0.52,35.96 -5.47,25.21 -5.45,17.29 -5.42,9.37 -4.48,4.30 -3.53,-0.75 -3.39,-1.16 -3.24,-1.58 -3.01,-1.94 -2.77,-2.31 -2.45,-2.61 -2.14,-2.90 -1.76,-3.12 -1.38,-3.33 -0.96,-3.45 -0.54,-3.57 -0.10,-3.58 0.32,-3.59 0.75,-3.50 1.17,-3.41 1.56,-3.22 1.96,-3.03 2.29,-2.75 2.62,-2.47 2.88,-2.12 3.14,-1.77 3.31,-1.37 3.47,-0.97 3.54,-0.54 3.61,-0.11 3.57,0.32 3.53,0.75 3.53,0.75 L 3.53,0.75 Z"></path></g><g transform="translate(1565 263.75) rotate(0 24.375 5.625)" stroke="none"><path fill="#1e1e1e" d="M 3.67,-0.86 Q 3.67,-0.86 4.95,5.28 6.24,11.42 8.15,17.88 10.06,24.35 11.29,27.76 12.53,31.17 13.61,32.26 14.69,33.35 14.78,33.78 14.88,34.22 14.87,34.67 14.86,35.11 14.74,35.54 14.62,35.97 14.40,36.36 14.19,36.75 13.88,37.08 13.58,37.41 13.20,37.65 12.83,37.90 12.41,38.04 11.99,38.19 11.54,38.24 11.10,38.28 10.66,38.21 10.22,38.15 9.80,37.98 9.39,37.81 9.03,37.55 8.67,37.29 8.38,36.94 8.09,36.60 7.89,36.20 7.70,35.80 8.45,31.67 9.20,27.53 10.71,21.23 12.21,14.93 14.38,8.50 16.54,2.07 19.43,-2.36 22.32,-6.80 25.35,-9.17 28.38,-11.54 31.83,-8.51 35.28,-5.47 35.71,-4.34 36.14,-3.20 36.26,-2.69 36.37,-2.18 36.36,-1.66 36.35,-1.14 36.22,-0.64 36.08,-0.13 35.83,0.32 35.58,0.78 35.22,1.16 34.87,1.54 34.44,1.83 34.00,2.12 33.51,2.30 33.02,2.47 32.50,2.53 31.98,2.58 31.46,2.51 30.94,2.43 30.46,2.24 29.97,2.04 29.55,1.74 29.12,1.43 28.78,1.04 28.45,0.64 28.21,0.17 27.98,-0.29 28.91,-3.61 29.83,-6.93 30.05,-9.78 30.26,-12.63 30.56,-16.53 30.86,-20.43 30.77,-21.79 30.68,-23.15 30.76,-23.65 30.84,-24.16 31.04,-24.63 31.23,-25.09 31.54,-25.50 31.84,-25.91 32.24,-26.23 32.63,-26.56 33.09,-26.78 33.55,-27.00 34.05,-27.10 34.55,-27.20 35.06,-27.18 35.57,-27.16 36.06,-27.02 36.55,-26.88 36.99,-26.63 37.43,-26.37 37.80,-26.02 38.17,-25.67 38.44,-25.24 38.71,-24.81 38.88,-24.33 39.04,-23.85 39.08,-23.34 39.12,-22.83 43.07,-22.58 47.03,-22.33 47.83,-22.27 48.63,-22.20 49.36,-21.89 50.10,-21.57 50.70,-21.04 51.30,-20.50 51.69,-19.80 52.09,-19.10 52.24,-18.32 52.40,-17.53 52.29,-16.73 52.18,-15.94 51.83,-15.22 51.47,-14.50 50.90,-13.93 50.34,-13.36 49.62,-13.00 48.90,-12.65 48.11,-12.54 47.31,-12.43 46.52,-12.58 45.73,-12.73 45.03,-13.12 44.33,-13.51 43.80,-14.11 43.26,-14.71 42.94,-15.44 42.62,-16.18 42.56,-16.98 42.49,-17.78 42.68,-18.56 42.88,-19.34 43.31,-20.02 43.74,-20.69 44.36,-21.20 44.99,-21.70 45.74,-21.98 46.49,-22.26 47.30,-22.28 48.10,-22.30 48.87,-22.07 49.63,-21.83 50.29,-21.37 50.94,-20.90 51.41,-20.25 51.88,-19.60 52.11,-18.83 52.35,-18.06 52.33,-17.26 52.31,-16.46 52.03,-15.70 51.76,-14.95 51.26,-14.32 50.75,-13.70 50.08,-13.26 49.40,-12.83 48.62,-12.64 47.85,-12.44 47.85,-12.44 47.85,-12.44 44.07,-12.37 40.29,-12.29 37.90,-13.36 35.51,-14.42 34.06,-16.18 32.61,-17.95 31.64,-20.55 30.68,-23.15 30.76,-23.65 30.84,-24.16 31.04,-24.62 31.23,-25.09 31.54,-25.50 31.84,-25.91 32.24,-26.23 32.63,-26.56 33.09,-26.78 33.55,-27.00 34.05,-27.10 34.55,-27.20 35.06,-27.18 35.57,-27.16 36.06,-27.02 36.55,-26.88 36.99,-26.63 37.43,-26.38 37.80,-26.02 38.17,-25.67 38.44,-25.24 38.71,-24.81 38.87,-24.33 39.04,-23.85 39.08,-23.34 39.12,-22.83 38.90,-21.48 38.68,-20.13 38.67,-15.96 38.67,-11.79 37.40,-7.49 36.14,-3.20 36.26,-2.69 36.37,-2.19 36.36,-1.66 36.35,-1.14 36.22,-0.64 36.08,-0.13 35.83,0.32 35.58,0.78 35.23,1.16 34.87,1.54 34.44,1.83 34.00,2.12 33.51,2.30 33.02,2.47 32.50,2.53 31.98,2.58 31.46,2.51 30.94,2.43 30.46,2.24 29.97,2.04 29.55,1.74 29.12,1.43 28.78,1.04 28.45,0.64 28.21,0.17 27.98,-0.29 27.64,-1.91 27.31,-3.53 24.88,0.25 22.45,4.03 20.56,10.19 18.67,16.35 17.39,22.75 16.12,29.16 15.40,31.26 14.68,33.35 14.78,33.78 14.88,34.22 14.87,34.67 14.86,35.11 14.74,35.54 14.62,35.97 14.40,36.36 14.19,36.75 13.88,37.08 13.58,37.41 13.20,37.65 12.83,37.90 12.41,38.04 11.99,38.19 11.54,38.24 11.10,38.28 10.66,38.21 10.22,38.15 9.80,37.98 9.39,37.81 9.03,37.55 8.67,37.29 8.38,36.94 8.09,36.60 7.89,36.20 7.70,35.80 7.01,34.63 6.32,33.47 5.10,29.87 3.88,26.28 1.69,19.64 -0.49,13.01 -2.08,6.93 -3.67,0.86 -3.72,0.41 -3.77,-0.03 -3.71,-0.49 -3.65,-0.94 -3.48,-1.36 -3.32,-1.78 -3.05,-2.15 -2.79,-2.53 -2.45,-2.82 -2.10,-3.12 -1.70,-3.33 -1.29,-3.53 -0.85,-3.64 -0.41,-3.74 0.03,-3.74 0.49,-3.73 0.93,-3.62 1.37,-3.51 1.77,-3.29 2.17,-3.08 2.51,-2.77 2.84,-2.47 3.10,-2.09 3.35,-1.71 3.51,-1.28 3.67,-0.86 3.67,-0.86 L 3.67,-0.86 Z"></path></g><g transform="translate(1623.75 230) rotate(0 55 18.125)" stroke="none"><path fill="#1e1e1e" d="M 3.29,-1.04 Q 3.29,-1.04 5.34,5.82 7.39,12.68 9.28,18.05 11.18,23.43 12.22,26.08 13.27,28.74 14.16,29.83 15.06,30.92 15.15,31.37 15.23,31.82 15.21,32.28 15.18,32.74 15.05,33.18 14.91,33.61 14.68,34.01 14.44,34.40 14.12,34.73 13.80,35.06 13.41,35.30 13.02,35.54 12.58,35.68 12.14,35.82 11.68,35.85 11.22,35.88 10.77,35.80 10.32,35.72 9.90,35.53 9.48,35.34 9.12,35.06 8.75,34.78 8.47,34.42 8.18,34.06 7.99,33.65 7.80,33.23 9.01,28.39 10.23,23.54 11.44,14.60 12.65,5.66 16.09,-4.44 19.53,-14.56 28.45,-16.40 37.37,-18.24 45.32,-15.70 53.28,-13.17 59.02,-3.08 64.77,7.00 73.39,22.17 82.00,37.34 90.39,43.81 98.78,50.27 102.48,53.18 106.17,56.09 106.47,56.41 106.76,56.73 106.94,57.13 107.11,57.53 107.16,57.96 107.20,58.39 107.10,58.81 107.00,59.24 106.77,59.60 106.54,59.97 106.20,60.25 105.87,60.53 105.46,60.68 105.06,60.84 104.62,60.85 104.19,60.87 103.77,60.75 103.36,60.63 103.00,60.38 102.64,60.13 102.39,59.78 102.13,59.43 102.00,59.02 101.86,58.60 101.87,58.17 101.88,57.73 102.02,57.32 102.17,56.92 102.43,56.57 102.70,56.23 103.06,55.99 103.43,55.75 103.85,55.64 104.27,55.53 104.70,55.56 105.13,55.59 105.53,55.76 105.94,55.93 106.26,56.21 106.59,56.50 106.81,56.87 107.03,57.25 107.11,57.67 107.20,58.10 107.15,58.53 107.09,58.96 106.91,59.35 106.72,59.75 106.41,60.06 106.11,60.37 105.72,60.56 105.34,60.76 104.91,60.83 104.48,60.89 104.05,60.81 103.62,60.74 103.24,60.53 102.86,60.32 102.86,60.32 102.86,60.32 99.15,57.43 95.44,54.53 86.40,47.35 77.35,40.17 68.62,24.90 59.89,9.64 55.27,0.55 50.64,-8.52 44.35,-10.52 38.05,-12.52 30.34,-11.49 22.63,-10.47 20.78,-2.00 18.93,6.46 17.83,15.87 16.73,25.27 15.90,28.10 15.06,30.92 15.15,31.37 15.23,31.82 15.21,32.28 15.18,32.74 15.05,33.17 14.91,33.61 14.68,34.01 14.44,34.40 14.12,34.73 13.80,35.06 13.41,35.30 13.02,35.54 12.58,35.68 12.14,35.82 11.68,35.85 11.22,35.88 10.77,35.80 10.32,35.72 9.90,35.53 9.48,35.35 9.12,35.06 8.75,34.78 8.47,34.42 8.18,34.06 7.99,33.65 7.80,33.23 7.26,32.06 6.72,30.88 6.07,28.21 5.42,25.55 3.32,20.09 1.22,14.63 -1.03,7.83 -3.29,1.04 -3.37,0.63 -3.45,0.22 -3.42,-0.19 -3.40,-0.61 -3.28,-1.00 -3.16,-1.40 -2.94,-1.76 -2.73,-2.12 -2.43,-2.41 -2.14,-2.71 -1.78,-2.93 -1.43,-3.14 -1.03,-3.27 -0.63,-3.40 -0.22,-3.42 0.19,-3.45 0.60,-3.38 1.01,-3.30 1.39,-3.13 1.77,-2.96 2.10,-2.71 2.43,-2.45 2.69,-2.12 2.95,-1.80 3.12,-1.42 3.29,-1.04 3.29,-1.04 L 3.29,-1.04 Z"></path></g><g transform="translate(1722.5 192.5) rotate(0 4.375 22.5)" stroke="none"><path fill="#1e1e1e" d="M 2.30,2.11 Q 2.30,2.11 -1.64,6.28 -5.60,10.44 -7.03,17.62 -8.47,24.79 -5.32,32.19 -2.18,39.60 7.40,42.03 16.99,44.46 25.25,39.16 33.50,33.87 36.26,24.06 39.02,14.25 36.39,8.68 33.76,3.11 21.04,3.12 8.33,3.14 -4.12,6.54 -16.59,9.95 -23.18,11.43 -29.76,12.91 -32.49,13.75 -35.21,14.60 -35.71,14.63 -36.21,14.66 -36.70,14.53 -37.18,14.39 -37.60,14.11 -38.02,13.83 -38.32,13.44 -38.63,13.04 -38.79,12.56 -38.95,12.09 -38.95,11.59 -38.96,11.08 -38.80,10.61 -38.64,10.13 -38.34,9.73 -38.04,9.33 -37.62,9.05 -37.21,8.76 -36.72,8.63 -36.24,8.49 -35.74,8.52 -35.24,8.54 -34.77,8.72 -34.30,8.91 -33.92,9.23 -33.54,9.55 -33.28,9.98 -33.02,10.41 -32.91,10.90 -32.80,11.39 -32.85,11.89 -32.90,12.39 -33.11,12.85 -33.32,13.30 -33.66,13.67 -34.00,14.03 -34.45,14.27 -34.89,14.51 -35.38,14.59 -35.88,14.67 -36.37,14.60 -36.87,14.52 -37.31,14.28 -37.76,14.05 -38.11,13.69 -38.45,13.32 -38.66,12.87 -38.88,12.42 -38.93,11.92 -38.99,11.42 -38.88,10.93 -38.78,10.44 -38.52,10.01 -38.27,9.57 -37.88,9.25 -37.50,8.92 -37.04,8.73 -36.57,8.55 -36.57,8.55 -36.57,8.55 -33.75,8.14 -30.92,7.74 -24.45,6.28 -17.97,4.82 -4.78,1.32 8.40,-2.18 22.23,-1.51 36.07,-0.85 40.09,6.94 44.11,14.73 40.54,26.23 36.96,37.72 26.94,43.66 16.91,49.60 5.48,46.32 -5.95,43.04 -10.00,33.63 -14.06,24.22 -12.13,15.51 -10.20,6.80 -6.25,2.34 -2.30,-2.11 -2.01,-2.35 -1.73,-2.60 -1.39,-2.77 -1.05,-2.93 -0.69,-3.02 -0.32,-3.10 0.05,-3.10 0.42,-3.09 0.79,-2.99 1.15,-2.90 1.48,-2.72 1.81,-2.54 2.09,-2.28 2.37,-2.03 2.58,-1.71 2.79,-1.40 2.91,-1.05 3.04,-0.69 3.08,-0.32 3.12,0.05 3.07,0.42 3.02,0.79 2.88,1.14 2.74,1.49 2.52,1.80 2.30,2.11 2.30,2.11 L 2.30,2.11 Z"></path></g><g transform="translate(1798.75 95) rotate(0 22.5 40.625)" stroke="none"><path fill="#1e1e1e" d="M -1.27,-3.06 Q -1.27,-3.06 3.07,-4.77 7.42,-6.48 13.59,-8.98 19.76,-11.47 23.63,-12.96 27.51,-14.45 30.74,-13.82 33.97,-13.20 36.83,-6.95 39.68,-0.71 42.08,12.76 44.49,26.25 46.18,42.37 47.87,58.50 48.92,68.55 49.97,78.59 50.41,83.25 50.84,87.91 48.81,90.79 46.77,93.68 46.31,93.81 45.85,93.95 45.37,93.93 44.89,93.91 44.44,93.74 44.00,93.57 43.63,93.26 43.26,92.96 43.01,92.55 42.75,92.14 42.64,91.68 42.53,91.21 42.58,90.73 42.62,90.25 42.82,89.82 43.02,89.38 43.34,89.03 43.66,88.67 44.09,88.44 44.51,88.21 44.98,88.13 45.45,88.05 45.92,88.12 46.40,88.19 46.82,88.41 47.25,88.63 47.58,88.97 47.92,89.31 48.13,89.74 48.33,90.18 48.39,90.65 48.45,91.13 48.35,91.60 48.26,92.07 48.01,92.48 47.77,92.89 47.41,93.21 47.05,93.53 46.61,93.71 46.17,93.89 45.69,93.92 45.21,93.96 44.75,93.84 44.28,93.71 43.88,93.45 43.48,93.19 43.19,92.81 42.89,92.43 42.73,91.98 42.57,91.53 42.57,91.05 42.56,90.57 42.71,90.11 42.85,89.66 43.14,89.27 43.42,88.88 43.82,88.61 44.21,88.34 44.21,88.34 44.21,88.34 44.74,88.37 45.27,88.41 44.77,83.81 44.27,79.22 43.13,69.18 41.99,59.14 40.20,43.25 38.42,27.35 36.03,14.52 33.64,1.69 31.35,-3.53 29.07,-8.76 25.57,-7.35 22.06,-5.95 15.94,-3.32 9.82,-0.70 5.55,1.18 1.27,3.06 0.89,3.17 0.50,3.28 0.10,3.29 -0.29,3.30 -0.68,3.22 -1.07,3.14 -1.43,2.96 -1.79,2.79 -2.10,2.53 -2.41,2.28 -2.65,1.95 -2.88,1.63 -3.04,1.26 -3.19,0.89 -3.25,0.50 -3.31,0.10 -3.28,-0.29 -3.24,-0.69 -3.11,-1.06 -2.98,-1.44 -2.77,-1.78 -2.55,-2.12 -2.26,-2.39 -1.97,-2.67 -1.62,-2.86 -1.27,-3.06 -1.27,-3.06 L -1.27,-3.06 Z"></path></g><g transform="translate(1922.5 61.25) rotate(0 1.25 10)" stroke="none"><path fill="#1e1e1e" d="M 3.67,2.75 Q 3.67,2.75 2.74,4.13 1.81,5.50 3.22,9.73 4.62,13.95 6.70,16.17 8.77,18.39 9.15,19.02 9.53,19.66 9.69,20.38 9.84,21.11 9.76,21.84 9.68,22.58 9.36,23.25 9.05,23.92 8.54,24.46 8.03,24.99 7.37,25.34 6.72,25.68 5.99,25.80 5.25,25.92 4.52,25.80 3.79,25.67 3.14,25.32 2.49,24.97 1.98,24.43 1.47,23.90 1.16,23.22 0.85,22.55 0.78,21.81 0.70,21.07 0.86,20.35 1.02,19.63 1.41,18.99 1.79,18.36 2.36,17.88 2.92,17.41 3.61,17.13 4.30,16.86 5.04,16.83 5.78,16.79 6.49,16.99 7.21,17.19 7.82,17.61 8.43,18.03 8.88,18.62 9.32,19.21 9.56,19.91 9.79,20.61 9.79,21.36 9.79,22.10 9.55,22.80 9.31,23.50 8.86,24.09 8.41,24.67 7.79,25.09 7.18,25.50 6.46,25.70 5.75,25.89 5.01,25.85 4.27,25.81 3.58,25.53 2.89,25.25 2.33,24.77 1.77,24.29 1.77,24.29 1.77,24.29 -0.57,21.26 -2.92,18.24 -5.29,13.65 -7.66,9.06 -6.89,4.65 -6.13,0.24 -4.90,-1.25 -3.67,-2.75 -3.29,-3.15 -2.90,-3.55 -2.44,-3.85 -1.97,-4.14 -1.44,-4.32 -0.92,-4.49 -0.37,-4.54 0.18,-4.58 0.72,-4.50 1.27,-4.41 1.78,-4.19 2.29,-3.97 2.73,-3.64 3.17,-3.31 3.52,-2.88 3.88,-2.45 4.11,-1.95 4.35,-1.45 4.46,-0.91 4.57,-0.37 4.55,0.17 4.53,0.73 4.38,1.26 4.22,1.79 3.95,2.27 3.67,2.75 3.67,2.75 L 3.67,2.75 Z"></path></g><g transform="translate(1945 131.25) rotate(0 5 9.375)" stroke="none"><path fill="#1e1e1e" d="M 3.40,2.91 Q 3.40,2.91 1.28,5.28 -0.82,7.65 -1.92,10.34 -3.02,13.04 -1.59,10.21 -0.16,7.38 5.21,6.44 10.58,5.50 12.36,5.08 14.14,4.67 14.87,4.67 15.61,4.68 16.30,4.92 17.00,5.16 17.58,5.61 18.16,6.06 18.57,6.67 18.97,7.29 19.16,8.00 19.35,8.71 19.31,9.44 19.26,10.17 18.98,10.85 18.70,11.54 18.22,12.09 17.74,12.65 17.11,13.02 16.48,13.39 15.76,13.54 15.04,13.70 14.31,13.61 13.58,13.52 12.91,13.21 12.25,12.89 11.72,12.38 11.19,11.87 10.85,11.22 10.51,10.57 10.40,9.84 10.29,9.11 10.41,8.39 10.54,7.67 10.89,7.02 11.24,6.37 11.78,5.87 12.32,5.37 12.99,5.07 13.66,4.77 14.39,4.69 15.12,4.62 15.84,4.79 16.55,4.95 17.18,5.34 17.81,5.72 18.28,6.29 18.75,6.85 19.01,7.54 19.28,8.22 19.31,8.96 19.35,9.69 19.14,10.40 18.94,11.10 18.52,11.71 18.10,12.31 17.51,12.75 16.92,13.19 16.22,13.42 15.53,13.65 15.53,13.65 15.53,13.65 13.70,13.79 11.88,13.93 8.75,13.59 5.62,13.25 5.38,15.41 5.14,17.57 2.97,19.45 0.79,21.32 -4.23,18.49 -9.26,15.67 -8.53,9.04 -7.80,2.41 -5.60,-0.25 -3.40,-2.91 -3.00,-3.28 -2.60,-3.64 -2.13,-3.90 -1.65,-4.16 -1.13,-4.30 -0.61,-4.43 -0.07,-4.44 0.46,-4.45 0.99,-4.33 1.52,-4.21 2.00,-3.97 2.48,-3.72 2.89,-3.37 3.30,-3.02 3.61,-2.58 3.93,-2.14 4.13,-1.64 4.33,-1.14 4.40,-0.60 4.47,-0.07 4.42,0.46 4.36,1.00 4.18,1.50 4.00,2.01 3.70,2.46 3.40,2.91 3.40,2.91 L 3.40,2.91 Z"></path></g><g transform="translate(2027.5 10) rotate(0 12.5 36.25)" stroke="none"><path fill="#1e1e1e" d="M 1.20,2.88 Q 1.20,2.88 -3.07,4.57 -7.35,6.26 -11.19,10.86 -15.04,15.45 -16.29,22.36 -17.53,29.27 -15.71,36.56 -13.89,43.86 -8.76,50.25 -3.64,56.65 7.18,60.34 18.01,64.03 25.96,59.98 33.91,55.93 36.16,46.46 38.42,36.99 36.92,31.75 35.41,26.51 30.92,24.49 26.43,22.47 20.57,22.93 14.72,23.38 10.26,25.20 5.80,27.02 3.46,29.73 1.11,32.45 -0.97,34.89 -3.05,37.34 -3.45,37.64 -3.84,37.94 -4.31,38.09 -4.78,38.25 -5.28,38.25 -5.78,38.25 -6.25,38.09 -6.72,37.93 -7.11,37.63 -7.50,37.32 -7.78,36.91 -8.06,36.50 -8.19,36.02 -8.32,35.55 -8.29,35.05 -8.26,34.55 -8.08,34.09 -7.89,33.63 -7.57,33.26 -7.25,32.88 -6.82,32.63 -6.40,32.37 -5.91,32.27 -5.43,32.16 -4.93,32.22 -4.44,32.27 -3.99,32.48 -3.54,32.69 -3.18,33.03 -2.82,33.38 -2.59,33.82 -2.36,34.25 -2.28,34.74 -2.21,35.23 -2.29,35.72 -2.37,36.21 -2.60,36.65 -2.84,37.09 -3.20,37.43 -3.56,37.77 -4.01,37.97 -4.46,38.18 -4.95,38.23 -5.45,38.28 -5.93,38.18 -6.42,38.07 -6.84,37.81 -7.26,37.55 -7.58,37.17 -7.90,36.80 -8.09,36.33 -8.27,35.87 -8.29,35.38 -8.32,34.88 -8.18,34.40 -8.05,33.93 -7.77,33.52 -7.49,33.11 -7.49,33.11 -7.49,33.11 -5.16,30.92 -2.83,28.73 0.42,25.49 3.68,22.24 9.02,20.18 14.36,18.12 21.42,17.90 28.48,17.69 34.08,20.86 39.67,24.03 41.62,31.00 43.56,37.97 40.40,48.77 37.23,59.56 27.36,64.31 17.48,69.05 4.97,64.68 -7.53,60.31 -13.35,52.82 -19.17,45.34 -21.11,36.87 -23.06,28.40 -21.33,20.22 -19.59,12.03 -14.74,6.47 -9.89,0.92 -5.54,-0.98 -1.20,-2.88 -0.83,-2.98 -0.47,-3.08 -0.10,-3.09 0.27,-3.11 0.64,-3.03 1.01,-2.95 1.35,-2.79 1.69,-2.62 1.98,-2.38 2.27,-2.14 2.49,-1.84 2.71,-1.54 2.86,-1.19 3.00,-0.84 3.06,-0.47 3.12,-0.10 3.08,0.27 3.05,0.64 2.93,1.00 2.81,1.36 2.60,1.67 2.40,1.99 2.13,2.25 1.85,2.51 1.52,2.69 1.20,2.88 1.20,2.88 L 1.20,2.88 Z"></path></g><g transform="translate(2028.75 65) rotate(0 20 30)" stroke="none"><path fill="#1e1e1e" d="M 2.91,1.12 Q 2.91,1.12 1.05,5.76 -0.79,10.39 -1.53,15.60 -2.26,20.81 -0.85,26.28 0.55,31.74 3.92,38.67 7.29,45.60 13.17,51.92 19.04,58.24 24.39,60.43 29.74,62.63 37.01,58.38 44.28,54.12 49.44,47.27 54.60,40.41 56.08,33.77 57.55,27.12 53.06,20.09 48.57,13.05 37.00,7.29 25.43,1.52 12.29,0.42 -0.85,-0.67 -7.07,3.27 -13.28,7.22 -15.09,10.68 -16.89,14.15 -16.87,17.09 -16.86,20.03 -16.98,20.50 -17.10,20.97 -17.37,21.38 -17.64,21.78 -18.02,22.09 -18.41,22.39 -18.87,22.55 -19.32,22.71 -19.81,22.72 -20.30,22.72 -20.76,22.57 -21.23,22.42 -21.62,22.14 -22.01,21.85 -22.29,21.45 -22.57,21.05 -22.70,20.58 -22.84,20.11 -22.82,19.63 -22.80,19.14 -22.63,18.68 -22.45,18.23 -22.14,17.85 -21.83,17.48 -21.42,17.22 -21.01,16.96 -20.53,16.85 -20.06,16.74 -19.57,16.79 -19.09,16.83 -18.64,17.03 -18.20,17.23 -17.84,17.56 -17.48,17.89 -17.25,18.32 -17.01,18.74 -16.93,19.22 -16.84,19.70 -16.91,20.19 -16.99,20.67 -17.21,21.10 -17.43,21.53 -17.78,21.87 -18.13,22.21 -18.57,22.42 -19.01,22.63 -19.49,22.69 -19.97,22.75 -20.45,22.66 -20.93,22.56 -21.35,22.31 -21.77,22.07 -22.09,21.70 -22.41,21.33 -22.60,20.88 -22.78,20.43 -22.82,19.95 -22.85,19.46 -22.85,19.46 -22.85,19.46 -22.19,15.60 -21.53,11.74 -18.89,7.35 -16.24,2.96 -8.62,-1.41 -1.00,-5.79 13.35,-4.50 27.70,-3.21 40.24,3.41 52.79,10.03 57.68,18.62 62.56,27.21 60.74,35.34 58.92,43.47 52.95,51.09 46.97,58.71 38.18,63.13 29.38,67.55 22.31,64.81 15.23,62.07 8.79,55.08 2.35,48.08 -1.27,40.60 -4.90,33.11 -6.44,26.65 -7.97,20.18 -7.18,14.23 -6.38,8.28 -4.65,3.58 -2.91,-1.12 -2.73,-1.45 -2.56,-1.78 -2.31,-2.06 -2.06,-2.34 -1.74,-2.56 -1.43,-2.77 -1.08,-2.90 -0.73,-3.03 -0.35,-3.08 0.01,-3.12 0.38,-3.07 0.76,-3.02 1.11,-2.89 1.46,-2.75 1.77,-2.54 2.08,-2.32 2.33,-2.04 2.57,-1.76 2.75,-1.42 2.92,-1.09 3.01,-0.72 3.10,-0.36 3.10,0.01 3.09,0.39 3.00,0.75 2.91,1.12 2.91,1.12 L 2.91,1.12 Z"></path></g><g transform="translate(2061.25 33.75) rotate(0 14.375 78.125)" stroke="none"><path fill="#1e1e1e" d="M 0.54,3.07 Q 0.54,3.07 -5.57,4.08 -11.69,5.09 -18.50,7.00 -25.31,8.91 -27.84,14.68 -30.37,20.44 -24.52,32.59 -18.68,44.74 -5.98,59.62 6.72,74.51 23.13,86.89 39.54,99.27 47.83,105.61 56.13,111.95 56.57,118.24 57.01,124.53 46.59,129.85 36.18,135.17 19.56,141.94 2.95,148.72 -6.97,151.13 -16.90,153.54 -22.00,148.91 -27.09,144.28 -25.18,129.36 -23.26,114.43 -19.07,100.99 -14.88,87.55 -13.13,81.58 -11.37,75.61 -10.86,72.99 -10.34,70.38 -10.12,69.93 -9.90,69.47 -9.55,69.11 -9.20,68.75 -8.75,68.52 -8.30,68.29 -7.80,68.22 -7.30,68.14 -6.81,68.23 -6.31,68.32 -5.87,68.56 -5.43,68.81 -5.09,69.18 -4.75,69.55 -4.54,70.01 -4.34,70.47 -4.29,70.97 -4.24,71.47 -4.36,71.97 -4.47,72.46 -4.74,72.88 -5.01,73.31 -5.40,73.63 -5.79,73.95 -6.26,74.13 -6.73,74.31 -7.23,74.33 -7.74,74.35 -8.22,74.21 -8.70,74.07 -9.12,73.78 -9.53,73.49 -9.83,73.08 -10.13,72.68 -10.28,72.20 -10.43,71.72 -10.43,71.21 -10.42,70.71 -10.25,70.23 -10.08,69.76 -9.77,69.36 -9.46,68.96 -9.04,68.69 -8.62,68.41 -8.13,68.28 -7.64,68.16 -7.14,68.19 -6.63,68.23 -6.17,68.42 -5.70,68.61 -5.32,68.95 -4.95,69.28 -4.69,69.71 -4.44,70.15 -4.34,70.64 -4.24,71.14 -4.30,71.64 -4.36,72.14 -4.36,72.14 -4.36,72.14 -5.34,74.61 -6.32,77.09 -8.09,83.10 -9.86,89.12 -13.96,102.17 -18.06,115.23 -20.42,128.83 -22.79,142.44 -19.36,145.73 -15.93,149.03 -7.48,146.42 0.95,143.82 17.42,137.10 33.88,130.38 43.82,125.92 53.75,121.47 53.01,118.30 52.28,115.13 44.28,109.35 36.28,103.57 19.43,90.82 2.58,78.06 -10.54,62.57 -23.68,47.08 -29.59,33.39 -35.49,19.71 -31.84,12.06 -28.19,4.42 -20.46,1.81 -12.74,-0.78 -6.64,-1.93 -0.54,-3.07 -0.16,-3.09 0.20,-3.11 0.57,-3.04 0.94,-2.97 1.29,-2.81 1.63,-2.66 1.92,-2.42 2.22,-2.19 2.45,-1.89 2.68,-1.59 2.83,-1.25 2.98,-0.90 3.05,-0.53 3.11,-0.16 3.09,0.20 3.06,0.58 2.95,0.94 2.84,1.30 2.64,1.62 2.44,1.94 2.17,2.20 1.91,2.47 1.58,2.66 1.26,2.85 0.90,2.96 0.54,3.07 0.54,3.07 L 0.54,3.07 Z"></path></g><g transform="translate(2055 51.25) rotate(0 28.125 -11.25)" stroke="none"><path fill="#1e1e1e" d="M -1.29,-3.02 Q -1.29,-3.02 3.77,-5.10 8.84,-7.17 18.41,-9.54 27.98,-11.91 39.47,-15.01 50.97,-18.11 57.67,-20.14 64.36,-22.16 64.70,-22.21 65.03,-22.26 65.37,-22.23 65.71,-22.20 66.03,-22.09 66.35,-21.97 66.63,-21.79 66.92,-21.60 67.15,-21.36 67.38,-21.11 67.55,-20.81 67.71,-20.51 67.80,-20.19 67.89,-19.86 67.90,-19.52 67.91,-19.18 67.84,-18.85 67.76,-18.52 67.61,-18.22 67.46,-17.91 67.25,-17.65 67.03,-17.39 66.75,-17.19 66.48,-16.99 66.17,-16.86 65.85,-16.74 61.23,-16.73 56.61,-16.73 48.18,-14.38 39.74,-12.02 27.39,-9.21 15.03,-6.39 5.52,-4.15 -3.99,-1.90 -5.83,-0.69 -7.68,0.52 -8.07,0.56 -8.47,0.61 -8.86,0.56 -9.26,0.51 -9.63,0.36 -10.00,0.22 -10.32,-0.00 -10.65,-0.23 -10.91,-0.53 -11.17,-0.82 -11.35,-1.18 -11.54,-1.53 -11.63,-1.92 -11.72,-2.30 -11.72,-2.70 -11.72,-3.10 -11.62,-3.48 -11.52,-3.87 -11.34,-4.22 -11.15,-4.57 -10.88,-4.87 -10.62,-5.16 -10.29,-5.39 -9.96,-5.61 -9.59,-5.75 -9.22,-5.89 -6.37,-5.87 -3.52,-5.86 6.35,-6.46 16.22,-7.06 26.19,-8.01 36.15,-8.95 40.77,-9.34 45.39,-9.72 45.73,-9.72 46.08,-9.71 46.42,-9.62 46.75,-9.53 47.05,-9.36 47.36,-9.19 47.61,-8.96 47.87,-8.72 48.06,-8.43 48.25,-8.14 48.37,-7.82 48.49,-7.49 48.52,-7.15 48.56,-6.80 48.51,-6.46 48.46,-6.11 48.33,-5.79 48.20,-5.47 48.00,-5.19 47.79,-4.91 47.53,-4.68 47.26,-4.46 46.95,-4.30 46.64,-4.15 46.31,-4.07 45.97,-3.99 42.98,-4.66 40.00,-5.32 39.53,-5.56 39.07,-5.81 38.70,-6.19 38.34,-6.57 38.12,-7.04 37.89,-7.52 37.83,-8.04 37.77,-8.57 37.89,-9.08 38.00,-9.59 38.27,-10.05 38.54,-10.50 38.93,-10.84 39.33,-11.18 39.82,-11.38 40.31,-11.58 40.83,-11.61 41.36,-11.64 41.87,-11.50 42.37,-11.36 42.81,-11.07 43.25,-10.77 43.57,-10.36 43.89,-9.94 44.06,-9.44 44.23,-8.94 44.23,-8.42 44.23,-7.89 44.07,-7.39 43.90,-6.89 43.58,-6.47 43.27,-6.05 42.83,-5.76 42.40,-5.46 41.89,-5.32 41.39,-5.17 40.86,-5.20 40.34,-5.23 39.85,-5.42 39.36,-5.61 38.95,-5.95 38.55,-6.29 38.28,-6.74 38.01,-7.19 37.89,-7.70 37.78,-8.22 37.83,-8.74 37.89,-9.26 38.10,-9.74 38.32,-10.22 38.68,-10.60 39.04,-10.98 39.51,-11.23 39.97,-11.48 40.49,-11.57 41.01,-11.65 41.53,-11.57 42.05,-11.49 42.05,-11.49 42.05,-11.49 43.72,-10.61 45.39,-9.72 45.73,-9.72 46.08,-9.71 46.42,-9.62 46.75,-9.53 47.05,-9.36 47.36,-9.19 47.61,-8.96 47.87,-8.72 48.06,-8.43 48.25,-8.15 48.37,-7.82 48.49,-7.49 48.52,-7.15 48.56,-6.80 48.51,-6.46 48.46,-6.11 48.33,-5.79 48.20,-5.47 48.00,-5.19 47.79,-4.91 47.53,-4.68 47.27,-4.46 46.95,-4.30 46.64,-4.15 46.31,-4.07 45.97,-3.99 41.36,-3.51 36.75,-3.04 26.70,-1.95 16.65,-0.87 4.48,-0.17 -7.68,0.52 -8.07,0.56 -8.47,0.61 -8.86,0.56 -9.26,0.51 -9.63,0.36 -10.00,0.22 -10.32,-0.00 -10.65,-0.23 -10.91,-0.53 -11.17,-0.82 -11.35,-1.18 -11.54,-1.53 -11.63,-1.92 -11.72,-2.30 -11.72,-2.70 -11.72,-3.10 -11.62,-3.48 -11.52,-3.87 -11.34,-4.22 -11.15,-4.57 -10.88,-4.87 -10.62,-5.16 -10.29,-5.39 -9.96,-5.61 -9.59,-5.75 -9.22,-5.89 -7.27,-6.62 -5.33,-7.35 4.20,-9.67 13.74,-12.00 25.92,-14.86 38.11,-17.73 46.83,-20.29 55.56,-22.84 59.96,-22.50 64.36,-22.16 64.70,-22.21 65.03,-22.26 65.37,-22.23 65.71,-22.20 66.03,-22.09 66.35,-21.97 66.63,-21.79 66.92,-21.60 67.15,-21.36 67.38,-21.11 67.55,-20.81 67.71,-20.52 67.80,-20.19 67.89,-19.86 67.90,-19.52 67.91,-19.18 67.84,-18.85 67.76,-18.52 67.61,-18.22 67.46,-17.91 67.25,-17.65 67.03,-17.39 66.75,-17.19 66.48,-16.99 66.17,-16.86 65.85,-16.74 59.17,-14.64 52.49,-12.55 40.97,-9.34 29.44,-6.12 20.36,-3.78 11.28,-1.44 6.29,0.79 1.29,3.02 0.91,3.14 0.53,3.25 0.13,3.26 -0.25,3.28 -0.64,3.20 -1.03,3.12 -1.39,2.95 -1.75,2.78 -2.06,2.53 -2.37,2.28 -2.61,1.97 -2.85,1.65 -3.00,1.28 -3.16,0.92 -3.22,0.53 -3.29,0.13 -3.26,-0.25 -3.23,-0.65 -3.10,-1.02 -2.98,-1.40 -2.76,-1.74 -2.55,-2.07 -2.27,-2.35 -1.98,-2.63 -1.64,-2.83 -1.29,-3.02 -1.29,-3.02 L -1.29,-3.02 Z"></path></g><g transform="translate(162.5 760) rotate(0 135 -46.875)" stroke="none"><path fill="#1e1e1e" d="M -1.83,-2.74 Q -1.83,-2.74 1.40,-4.90 4.64,-7.05 10.89,-10.14 17.15,-13.23 31.00,-18.84 44.85,-24.45 70.57,-32.58 96.29,-40.71 125.54,-49.18 154.79,-57.65 181.91,-66.25 209.03,-74.86 225.19,-80.65 241.36,-86.44 249.34,-89.27 257.31,-92.09 260.66,-93.42 264.00,-94.74 264.47,-94.83 264.94,-94.92 265.41,-94.85 265.88,-94.78 266.31,-94.56 266.74,-94.34 267.07,-94.00 267.40,-93.66 267.61,-93.23 267.82,-92.80 267.88,-92.33 267.94,-91.85 267.85,-91.39 267.75,-90.92 267.51,-90.50 267.27,-90.09 266.91,-89.77 266.55,-89.46 266.11,-89.28 265.67,-89.09 265.20,-89.06 264.72,-89.02 264.26,-89.14 263.80,-89.26 263.40,-89.52 263.00,-89.79 262.70,-90.16 262.40,-90.54 262.24,-90.99 262.08,-91.44 262.08,-91.91 262.07,-92.39 262.21,-92.85 262.36,-93.30 262.64,-93.69 262.92,-94.07 263.31,-94.35 263.71,-94.62 264.16,-94.76 264.62,-94.89 265.10,-94.87 265.58,-94.86 266.02,-94.69 266.47,-94.52 266.84,-94.22 267.21,-93.91 267.46,-93.51 267.71,-93.10 267.82,-92.64 267.93,-92.17 267.89,-91.70 267.85,-91.22 267.65,-90.78 267.46,-90.35 267.14,-90.00 266.82,-89.64 266.40,-89.41 265.98,-89.18 265.98,-89.18 265.98,-89.18 262.55,-88.10 259.12,-87.01 251.16,-84.16 243.21,-81.32 226.95,-75.45 210.70,-69.59 183.53,-60.92 156.36,-52.24 127.20,-43.73 98.04,-35.22 72.57,-27.08 47.11,-18.93 33.54,-13.31 19.97,-7.68 14.13,-4.62 8.29,-1.57 5.06,0.58 1.83,2.74 1.47,2.92 1.12,3.10 0.73,3.19 0.34,3.28 -0.05,3.27 -0.45,3.27 -0.83,3.16 -1.22,3.06 -1.56,2.87 -1.91,2.68 -2.21,2.41 -2.50,2.14 -2.72,1.81 -2.94,1.48 -3.08,1.11 -3.21,0.73 -3.25,0.34 -3.30,-0.05 -3.24,-0.44 -3.19,-0.84 -3.04,-1.21 -2.89,-1.58 -2.66,-1.90 -2.43,-2.22 -2.13,-2.48 -1.83,-2.74 -1.83,-2.74 L -1.83,-2.74 Z"></path></g><g transform="translate(381.25 751.25) rotate(0 124.375 -65)" stroke="none"><path fill="#1e1e1e" d="M -1.30,-3.26 Q -1.30,-3.26 7.72,-6.74 16.75,-10.22 38.84,-20.62 60.93,-31.01 93.34,-47.26 125.74,-63.51 160.68,-83.31 195.62,-103.11 210.50,-111.53 225.38,-119.95 225.81,-120.11 226.23,-120.26 226.69,-120.28 227.14,-120.29 227.58,-120.16 228.01,-120.03 228.38,-119.76 228.75,-119.50 229.02,-119.13 229.28,-118.76 229.42,-118.33 229.55,-117.89 229.54,-117.44 229.53,-116.98 229.37,-116.56 229.22,-116.13 228.93,-115.78 228.65,-115.42 228.27,-115.18 227.88,-114.93 227.44,-114.82 227.00,-114.71 226.55,-114.75 226.10,-114.78 225.68,-114.96 225.26,-115.14 224.92,-115.44 224.58,-115.74 224.36,-116.14 224.14,-116.53 224.05,-116.98 223.96,-117.43 224.02,-117.88 224.08,-118.33 224.28,-118.73 224.49,-119.14 224.81,-119.46 225.13,-119.78 225.53,-119.99 225.94,-120.19 226.39,-120.25 226.84,-120.31 227.29,-120.23 227.73,-120.15 228.13,-119.92 228.52,-119.70 228.83,-119.36 229.13,-119.02 229.31,-118.61 229.49,-118.19 229.53,-117.74 229.57,-117.28 229.46,-116.84 229.35,-116.40 229.11,-116.02 228.86,-115.64 228.51,-115.35 228.16,-115.07 228.16,-115.07 228.16,-115.07 213.31,-106.59 198.46,-98.11 163.44,-78.16 128.42,-58.21 96.00,-41.81 63.59,-25.41 41.38,-14.77 19.18,-4.14 10.24,-0.43 1.30,3.26 0.89,3.37 0.48,3.48 0.06,3.49 -0.36,3.49 -0.77,3.40 -1.18,3.31 -1.56,3.12 -1.94,2.93 -2.26,2.65 -2.59,2.37 -2.83,2.03 -3.08,1.69 -3.24,1.29 -3.39,0.90 -3.45,0.48 -3.51,0.06 -3.47,-0.35 -3.42,-0.78 -3.28,-1.17 -3.14,-1.57 -2.90,-1.93 -2.67,-2.28 -2.36,-2.57 -2.04,-2.85 -1.67,-3.06 -1.30,-3.26 -1.30,-3.26 L -1.30,-3.26 Z"></path></g><g transform="translate(606.25 766.25) rotate(0 83.75 -89.375)" stroke="none"><path fill="#1e1e1e" d="M -2.28,-2.85 Q -2.28,-2.85 3.19,-7.05 8.66,-11.26 25.28,-27.28 41.89,-43.31 77.35,-82.77 112.80,-122.24 127.92,-139.03 143.04,-155.82 143.40,-156.11 143.77,-156.41 144.21,-156.57 144.66,-156.73 145.13,-156.75 145.60,-156.76 146.05,-156.62 146.50,-156.48 146.89,-156.21 147.27,-155.93 147.54,-155.55 147.82,-155.17 147.96,-154.72 148.10,-154.27 148.08,-153.79 148.07,-153.32 147.91,-152.88 147.75,-152.44 147.45,-152.07 147.16,-151.70 146.76,-151.45 146.36,-151.19 145.90,-151.08 145.45,-150.96 144.98,-151.00 144.51,-151.04 144.07,-151.23 143.64,-151.41 143.29,-151.73 142.94,-152.04 142.70,-152.45 142.47,-152.86 142.38,-153.33 142.29,-153.79 142.36,-154.26 142.42,-154.73 142.63,-155.15 142.84,-155.57 143.17,-155.91 143.51,-156.24 143.93,-156.45 144.35,-156.66 144.82,-156.72 145.29,-156.79 145.75,-156.70 146.21,-156.61 146.62,-156.38 147.03,-156.14 147.35,-155.79 147.66,-155.44 147.85,-155.01 148.04,-154.58 148.08,-154.11 148.11,-153.64 148.00,-153.18 147.89,-152.72 147.63,-152.32 147.38,-151.92 147.38,-151.92 147.38,-151.93 132.34,-135.06 117.31,-118.20 81.82,-78.48 46.32,-38.76 29.60,-22.37 12.89,-5.98 7.58,-1.56 2.28,2.85 1.90,3.08 1.53,3.31 1.11,3.45 0.69,3.58 0.25,3.61 -0.18,3.65 -0.61,3.57 -1.05,3.50 -1.45,3.32 -1.85,3.14 -2.20,2.87 -2.55,2.61 -2.83,2.26 -3.10,1.92 -3.29,1.52 -3.47,1.12 -3.56,0.69 -3.64,0.25 -3.62,-0.18 -3.60,-0.62 -3.47,-1.04 -3.34,-1.46 -3.12,-1.84 -2.90,-2.22 -2.59,-2.53 -2.28,-2.85 -2.28,-2.85 L -2.28,-2.85 Z"></path></g><g transform="translate(766.25 586.25) rotate(0 -180 33.75)" stroke="none"><path fill="#1e1e1e" d="M 0.48,3.08 Q 0.48,3.08 -6.35,4.09 -13.19,5.10 -21.82,6.59 -30.45,8.07 -44.23,10.13 -58.01,12.19 -74.68,14.14 -91.35,16.08 -113.51,18.70 -135.67,21.31 -165.87,26.36 -196.07,31.41 -221.80,37.14 -247.53,42.86 -264.20,47.09 -280.88,51.31 -293.74,54.54 -306.60,57.78 -314.93,59.87 -323.27,61.96 -329.32,63.57 -335.36,65.17 -340.53,66.23 -345.69,67.29 -349.64,68.14 -353.60,68.99 -355.23,69.56 -356.87,70.14 -357.39,70.16 -357.91,70.18 -358.41,70.04 -358.91,69.89 -359.33,69.59 -359.76,69.29 -360.07,68.87 -360.37,68.45 -360.53,67.95 -360.69,67.46 -360.68,66.94 -360.67,66.42 -360.50,65.93 -360.32,65.44 -360.00,65.03 -359.68,64.62 -359.24,64.33 -358.81,64.05 -358.30,63.92 -357.80,63.79 -357.28,63.82 -356.76,63.86 -356.28,64.06 -355.80,64.26 -355.41,64.61 -355.02,64.95 -354.76,65.40 -354.50,65.85 -354.39,66.36 -354.29,66.87 -354.36,67.39 -354.42,67.90 -354.65,68.37 -354.87,68.84 -355.24,69.21 -355.60,69.58 -356.07,69.82 -356.53,70.06 -357.05,70.13 -357.56,70.21 -358.07,70.11 -358.59,70.02 -359.04,69.77 -359.50,69.52 -359.85,69.13 -360.20,68.75 -360.41,68.27 -360.62,67.80 -360.67,67.28 -360.72,66.76 -360.60,66.26 -360.48,65.75 -360.20,65.31 -359.92,64.87 -359.52,64.54 -359.12,64.21 -358.63,64.02 -358.15,63.84 -358.15,63.84 -358.15,63.84 -356.41,63.73 -354.68,63.63 -350.72,62.87 -346.75,62.12 -341.73,61.09 -336.72,60.06 -330.64,58.45 -324.56,56.83 -316.23,54.73 -307.89,52.63 -295.04,49.39 -282.19,46.14 -265.44,41.89 -248.69,37.63 -222.82,31.86 -196.96,26.08 -166.64,20.99 -136.31,15.90 -114.16,13.24 -92.00,10.59 -75.43,8.61 -58.86,6.62 -45.16,4.50 -31.46,2.38 -22.79,0.79 -14.12,-0.79 -7.30,-1.94 -0.48,-3.08 -0.11,-3.09 0.26,-3.11 0.63,-3.03 1.00,-2.95 1.34,-2.79 1.68,-2.63 1.97,-2.39 2.26,-2.15 2.48,-1.85 2.71,-1.54 2.85,-1.20 3.00,-0.85 3.06,-0.48 3.12,-0.11 3.09,0.26 3.05,0.63 2.93,0.99 2.81,1.35 2.61,1.66 2.41,1.98 2.13,2.24 1.86,2.50 1.53,2.69 1.21,2.87 0.84,2.98 0.48,3.08 0.48,3.08 L 0.48,3.08 Z"></path></g></svg>